<svg id="Layer_1" data-name="Layer 1" xmlns="http://www.w3.org/2000/svg" viewBox="0 0 150 28"><defs><style>.cls-1{fill:#da2028;}</style></defs><title>review-stars</title><path class="cls-1" d="M23.28,27.56L14.4,21.14,5.55,27.56l3.37-10.4L0.07,10.7H11L14.4,0.26,17.8,10.7h11l-8.89,6.47Z"/><path class="cls-1" d="M53.43,27.56l-8.89-6.43L35.7,27.56l3.37-10.4L30.22,10.7h11L44.55,0.26l3.4,10.44h11L50,17.17Z"/><path class="cls-1" d="M83.58,27.56L74.7,21.14l-8.85,6.43,3.37-10.4L60.37,10.7h11L74.7,0.26,78.1,10.7h11l-8.89,6.47Z"/><path class="cls-1" d="M113.73,27.56l-8.89-6.43L96,27.56l3.37-10.4L90.52,10.7h11l3.37-10.44,3.4,10.44h11l-8.89,6.47Z"/><path class="cls-1" d="M143.88,27.56L135,21.14l-8.85,6.43,3.37-10.4-8.85-6.47h11L135,0.26l3.4,10.44h11l-8.89,6.47Z"/></svg>